<svg width="37" height="37" viewBox="0 0 37 37" fill="none" xmlns="http://www.w3.org/2000/svg">
<rect x="0.395481" y="0.644016" width="35.5933" height="35.5933" rx="17.7966" fill="white" fill-opacity="0.05" stroke="url(#paint0_linear_660_557)" stroke-width="0.790962"/>
<path d="M18.3674 15.9689C17.0067 15.9689 15.8962 17.0793 15.8962 18.44C15.8962 19.8007 17.0067 20.9112 18.3674 20.9112C19.7281 20.9112 20.8385 19.8007 20.8385 18.44C20.8385 17.0793 19.7281 15.9689 18.3674 15.9689ZM25.7789 18.44C25.7789 17.4167 25.7882 16.4027 25.7307 15.3812C25.6733 14.1948 25.4026 13.1418 24.535 12.2742C23.6656 11.4048 22.6145 11.136 21.428 11.0785C20.4047 11.0211 19.3907 11.0303 18.3692 11.0303C17.3459 11.0303 16.3319 11.0211 15.3104 11.0785C14.124 11.136 13.071 11.4067 12.2034 12.2742C11.334 13.1437 11.0652 14.1948 11.0077 15.3812C10.9503 16.4046 10.9595 17.4186 10.9595 18.44C10.9595 19.4615 10.9503 20.4774 11.0077 21.4988C11.0652 22.6853 11.3359 23.7382 12.2034 24.6058C13.0729 25.4753 14.124 25.7441 15.3104 25.8015C16.3338 25.859 17.3478 25.8497 18.3692 25.8497C19.3925 25.8497 20.4066 25.859 21.428 25.8015C22.6145 25.7441 23.6674 25.4734 24.535 24.6058C25.4045 23.7364 25.6733 22.6853 25.7307 21.4988C25.7901 20.4774 25.7789 19.4633 25.7789 18.44ZM18.3674 22.2422C16.2633 22.2422 14.5652 20.5441 14.5652 18.44C14.5652 16.336 16.2633 14.6379 18.3674 14.6379C20.4715 14.6379 22.1696 16.336 22.1696 18.44C22.1696 20.5441 20.4715 22.2422 18.3674 22.2422ZM22.3253 15.3701C21.834 15.3701 21.4373 14.9734 21.4373 14.4821C21.4373 13.9909 21.834 13.5942 22.3253 13.5942C22.8165 13.5942 23.2133 13.9909 23.2133 14.4821C23.2134 14.5988 23.1905 14.7143 23.146 14.8221C23.1014 14.9299 23.036 15.0279 22.9535 15.1104C22.871 15.1929 22.7731 15.2583 22.6653 15.3028C22.5575 15.3474 22.4419 15.3703 22.3253 15.3701Z" fill="url(#paint1_linear_660_557)"/>
<defs>
<linearGradient id="paint0_linear_660_557" x1="-9.46355e-08" y1="1.31866" x2="17.0035" y2="26.9399" gradientUnits="userSpaceOnUse">
<stop stop-color="#FF2801"/>
<stop offset="1" stop-color="#FF6B0A"/>
</linearGradient>
<linearGradient id="paint1_linear_660_557" x1="10.959" y1="11.4657" x2="17.885" y2="21.9022" gradientUnits="userSpaceOnUse">
<stop stop-color="#FF2801"/>
<stop offset="1" stop-color="#FF6B0A"/>
</linearGradient>
</defs>
</svg>
