<svg width="37" height="37" viewBox="0 0 37 37" fill="none" xmlns="http://www.w3.org/2000/svg">
<rect x="0.395481" y="0.395481" width="35.5933" height="35.5933" rx="17.7966" fill="white" fill-opacity="0.05" stroke="url(#paint0_linear_660_551)" stroke-width="0.790962"/>
<g clip-path="url(#clip0_660_551)">
<path d="M27.5826 12.6058C26.9222 12.8985 26.2127 13.0962 25.4668 13.1856C26.2364 12.7251 26.8122 12.0003 27.0867 11.1465C26.3636 11.576 25.5723 11.8783 24.747 12.0403C24.1921 11.4478 23.457 11.055 22.656 10.9231C21.8549 10.7911 21.0327 10.9273 20.317 11.3105C19.6013 11.6936 19.0321 12.3024 18.6979 13.0422C18.3636 13.782 18.2829 14.6115 18.4684 15.4019C17.0033 15.3283 15.57 14.9475 14.2616 14.2842C12.9532 13.6209 11.7989 12.6898 10.8736 11.5515C10.5572 12.0973 10.3753 12.73 10.3753 13.4039C10.3749 14.0106 10.5243 14.608 10.8102 15.143C11.0961 15.6781 11.5096 16.1344 12.0141 16.4713C11.429 16.4527 10.8568 16.2946 10.3452 16.0101V16.0576C10.3451 16.9085 10.6395 17.7332 11.1782 18.3917C11.717 19.0503 12.467 19.5022 13.301 19.6707C12.7582 19.8176 12.1892 19.8392 11.6368 19.734C11.8721 20.4661 12.3305 21.1063 12.9477 21.565C13.565 22.0237 14.3102 22.2779 15.0791 22.292C13.7739 23.3166 12.1619 23.8724 10.5026 23.8699C10.2087 23.87 9.91497 23.8528 9.62305 23.8185C11.3074 24.9015 13.2681 25.4762 15.2705 25.474C22.0491 25.474 25.7547 19.8598 25.7547 14.9906C25.7547 14.8324 25.7508 14.6726 25.7436 14.5144C26.4644 13.9932 27.0866 13.3477 27.581 12.6082L27.5826 12.6058Z" fill="url(#paint1_linear_660_551)"/>
</g>
<defs>
<linearGradient id="paint0_linear_660_551" x1="-9.46355e-08" y1="1.07012" x2="17.0035" y2="26.6913" gradientUnits="userSpaceOnUse">
<stop stop-color="#FF2801"/>
<stop offset="1" stop-color="#FF6B0A"/>
</linearGradient>
<linearGradient id="paint1_linear_660_551" x1="9.62305" y1="11.3034" x2="15.8114" y2="22.7739" gradientUnits="userSpaceOnUse">
<stop stop-color="#FF2801"/>
<stop offset="1" stop-color="#FF6B0A"/>
</linearGradient>
<clipPath id="clip0_660_551">
<rect width="18.9831" height="18.9831" fill="white" transform="translate(8.70117 8.70044)"/>
</clipPath>
</defs>
</svg>
